<svg xmlns="http://www.w3.org/2000/svg" xmlns:xlink="http://www.w3.org/1999/xlink" viewBox="0 0 76 20"><path d="M 20.102 9.913 C 20.102 15.388 15.594 19.826 10.034 19.826 C 4.758 19.826 0.43 15.831 0 10.746 L 13.309 10.746 L 13.309 9.08 L 0 9.08 C 0.43 3.995 4.758 0 10.034 0 C 15.594 0 20.102 4.438 20.102 9.913 Z M 57.431 18.03 C 60.92 18.03 63.208 16.175 63.208 13.383 C 63.208 10.791 61.486 9.562 58.881 9.137 L 56.57 8.757 C 54.803 8.467 53.625 7.707 53.625 6.031 C 53.625 4.334 54.939 3.037 57.431 3.037 C 59.855 3.037 61.101 4.244 61.237 5.965 L 62.981 5.965 C 62.845 3.685 61.078 1.652 57.454 1.652 C 53.874 1.652 51.903 3.641 51.903 6.099 C 51.903 8.713 53.693 9.919 56.14 10.321 L 58.473 10.679 C 60.421 11.014 61.509 11.796 61.509 13.45 C 61.509 15.394 59.9 16.645 57.454 16.645 C 54.916 16.645 53.33 15.438 53.194 13.383 L 51.473 13.383 C 51.609 16.064 53.693 18.03 57.431 18.03 Z M 31.711 17.717 L 25.367 17.717 L 25.367 1.987 L 31.484 1.987 C 34.18 1.987 36.061 3.551 36.061 6.054 C 36.061 7.864 35.018 9.07 33.342 9.472 L 33.342 9.539 C 35.335 9.919 36.559 11.26 36.559 13.36 C 36.559 16.064 34.543 17.717 31.711 17.717 Z M 31.258 8.892 C 33.183 8.892 34.361 7.864 34.361 6.255 L 34.361 6.032 C 34.361 4.423 33.183 3.417 31.258 3.417 L 27.066 3.417 L 27.066 8.892 Z M 31.461 16.287 C 33.568 16.287 34.86 15.148 34.86 13.405 L 34.86 13.181 C 34.86 11.372 33.546 10.277 31.439 10.277 L 27.066 10.277 L 27.066 16.287 Z M 50.28 17.717 L 48.468 17.717 L 47.108 13.45 L 40.765 13.45 L 39.405 17.717 L 37.684 17.717 L 42.917 1.987 L 44.979 1.987 Z M 44.027 3.708 L 43.891 3.708 L 41.218 12.042 L 46.678 12.042 Z M 65.76 17.717 L 65.76 1.987 L 76 1.987 L 76 3.44 L 67.459 3.44 L 67.459 8.847 L 75.32 8.847 L 75.32 10.277 L 67.459 10.277 L 67.459 16.265 L 76 16.265 L 76 17.717 Z" fill="rgb(255, 255, 255)"></path></svg>